<svg width="26" height="26" viewBox="0 0 26 26" fill="none" xmlns="http://www.w3.org/2000/svg">
<path d="M24.8419 1.01033C24.949 0.962724 25.0482 1.09004 24.9746 1.18082L16.7743 11.3582C16.7223 11.4227 16.6855 11.4979 16.6665 11.5783C16.6476 11.6588 16.647 11.7424 16.6649 11.8231C16.6827 11.9038 16.7186 11.9794 16.7697 12.0446C16.8209 12.1097 16.886 12.1627 16.9605 12.1996L20.933 14.1713C21.1215 14.265 21.2794 14.4099 21.3884 14.5891C21.4973 14.7684 21.5529 14.9746 21.5486 15.1839C21.5443 15.3932 21.4803 15.5971 21.364 15.7717C21.2477 15.9464 21.084 16.0847 20.8917 16.1707L1.15857 24.9897C1.05153 25.0373 0.952306 24.91 1.02478 24.8192L9.22509 14.6418C9.2771 14.5773 9.31392 14.5021 9.33285 14.4217C9.35178 14.3412 9.35234 14.2576 9.33448 14.1769C9.31663 14.0962 9.28082 14.0206 9.22967 13.9554C9.17852 13.8903 9.11334 13.8373 9.0389 13.8004L5.0664 11.8287C4.87786 11.735 4.71995 11.5901 4.61099 11.4109C4.50203 11.2316 4.44649 11.0254 4.4508 10.8161C4.45512 10.6068 4.51913 10.4029 4.63539 10.2283C4.75165 10.0536 4.91541 9.9153 5.10765 9.82932L24.8419 1.01033Z" stroke="#EDBBFF" stroke-width="1.2" stroke-linecap="round"/>
</svg>
