<svg width="14" height="16" viewBox="0 0 14 16" fill="none" xmlns="http://www.w3.org/2000/svg">
<path d="M7.75569 1.1025C7.55146 0.908233 7.28106 0.799988 6.99999 0.799988C6.71893 0.799988 6.44853 0.908233 6.24429 1.1025L0.915895 6.1691C0.752744 6.32443 0.622834 6.51164 0.534124 6.71926C0.445414 6.92689 0.399772 7.15054 0.399995 7.37654V13.541C0.400286 13.9811 0.574254 14.4031 0.883657 14.7142C1.19306 15.0252 1.61258 15.2 2.04999 15.2H3.69999C4.1376 15.2 4.55729 15.0251 4.86672 14.7138C5.17616 14.4024 5.34999 13.9802 5.34999 13.5399V10.7731C5.34999 10.6263 5.40794 10.4856 5.51109 10.3818C5.61423 10.278 5.75413 10.2197 5.89999 10.2197H8.09999C8.24586 10.2197 8.38576 10.278 8.4889 10.3818C8.59205 10.4856 8.64999 10.6263 8.64999 10.7731V13.5399C8.64999 13.9802 8.82383 14.4024 9.13327 14.7138C9.4427 15.0251 9.86239 15.2 10.3 15.2H11.95C12.3876 15.2 12.8073 15.0251 13.1167 14.7138C13.4262 14.4024 13.6 13.9802 13.6 13.5399V7.37543C13.5999 7.14954 13.554 6.92605 13.4651 6.71862C13.3762 6.5112 13.2462 6.32421 13.083 6.1691L7.75569 1.1025Z" fill="#EDBBFF" stroke="#EDBBFF" stroke-width="0.72"/>
</svg>
