<svg width="14" height="18" viewBox="0 0 14 18" fill="none" xmlns="http://www.w3.org/2000/svg">
<path d="M6.75 0C5.75544 0 4.80161 0.395088 4.09835 1.09835C3.39509 1.80161 3 2.75544 3 3.75V9C3 9.99456 3.39509 10.9484 4.09835 11.6517C4.80161 12.3549 5.75544 12.75 6.75 12.75C7.74456 12.75 8.69839 12.3549 9.40165 11.6517C10.1049 10.9484 10.5 9.99456 10.5 9V3.75C10.5 2.75544 10.1049 1.80161 9.40165 1.09835C8.69839 0.395088 7.74456 0 6.75 0ZM0.75 8.25C0.948912 8.25 1.13968 8.32902 1.28033 8.46967C1.42098 8.61032 1.5 8.80109 1.5 9C1.5 10.3924 2.05312 11.7277 3.03769 12.7123C4.02225 13.6969 5.35761 14.25 6.75 14.25C8.14239 14.25 9.47774 13.6969 10.4623 12.7123C11.4469 11.7277 12 10.3924 12 9C12 8.80109 12.079 8.61032 12.2197 8.46967C12.3603 8.32902 12.5511 8.25 12.75 8.25C12.9489 8.25 13.1397 8.32902 13.2803 8.46967C13.421 8.61032 13.5 8.80109 13.5 9C13.5003 10.6606 12.8885 12.263 11.7816 13.5008C10.6747 14.7386 9.15029 15.525 7.5 15.7095V17.25C7.5 17.4489 7.42098 17.6397 7.28033 17.7803C7.13968 17.921 6.94891 18 6.75 18C6.55109 18 6.36032 17.921 6.21967 17.7803C6.07902 17.6397 6 17.4489 6 17.25V15.7095C4.34971 15.525 2.82534 14.7386 1.71841 13.5008C0.611486 12.263 -0.000318718 10.6606 1.24561e-07 9C1.24561e-07 8.80109 0.0790179 8.61032 0.21967 8.46967C0.360322 8.32902 0.551088 8.25 0.75 8.25Z" fill="#EDBBFF"/>
</svg>
