<svg width="24" height="25" viewBox="0 0 24 25" fill="none" xmlns="http://www.w3.org/2000/svg">
<path fill-rule="evenodd" clip-rule="evenodd" d="M15.2648 0.661834C14.0645 0.154337 12.762 -0.0663488 11.461 0.0173788C10.1601 0.101106 8.89674 0.486931 7.77179 1.14408C6.64683 1.80123 5.69137 2.71151 4.98162 3.80234C4.27187 4.89316 3.82747 6.13434 3.68386 7.42688L3.33742 10.5331L3.32917 10.6099C3.16291 12.0543 2.69154 13.4472 1.94617 14.6966L1.90492 14.7638L1.11169 16.0844L1.09244 16.1173C0.748755 16.6892 0.462806 17.1637 0.277214 17.5559C0.0902467 17.9523 -0.0527279 18.3815 0.0187594 18.8354C0.0962735 19.3262 0.349225 19.7724 0.730883 20.0916C1.08557 20.3878 1.52824 20.4838 1.96404 20.5277C2.39709 20.5716 2.95111 20.5716 3.62062 20.5716H20.3789C21.0484 20.5716 21.6024 20.5716 22.0355 20.5277C22.4713 20.4838 22.9153 20.3878 23.2686 20.0916C23.6503 19.7724 23.9032 19.3262 23.9808 18.8354C24.0536 18.3801 23.9093 17.9523 23.7223 17.5559C23.5367 17.1637 23.2521 16.6892 22.9071 16.116L22.8878 16.0844L22.0932 14.7638L22.0533 14.698C21.308 13.4485 20.8366 12.0557 20.6703 10.6112L20.6621 10.5331L20.6044 10.0092C20.1727 10.1518 19.7204 10.2423 19.2502 10.2739L19.2956 10.6853L19.3052 10.7676C19.4936 12.4044 20.0278 13.9828 20.8724 15.3987L20.9137 15.47L21.7097 16.7907C22.0781 17.4023 22.3255 17.8179 22.4795 18.1401C22.6321 18.4665 22.6307 18.5831 22.6239 18.6201C22.5981 18.7841 22.5136 18.9332 22.386 19.0398C22.3558 19.0644 22.2568 19.1275 21.898 19.1632C21.5406 19.1988 21.058 19.2002 20.3418 19.2002H3.65774C2.94287 19.2002 2.45758 19.2002 2.10289 19.1632C1.7427 19.1275 1.64372 19.0644 1.61348 19.0398C1.48618 18.9335 1.40171 18.785 1.37564 18.6215C1.37014 18.5831 1.36739 18.4665 1.52137 18.1415C1.67259 17.8179 1.9228 17.4023 2.29123 16.7907L3.08447 15.47L3.12708 15.3987C3.9719 13.9824 4.50606 12.4035 4.6943 10.7662L4.70393 10.6839L5.05037 7.57773C5.16583 6.53625 5.51504 5.53411 6.07205 4.64575C6.62906 3.75739 7.37957 3.00563 8.26781 2.44632C9.15605 1.88701 10.1592 1.53453 11.2028 1.41505C12.2463 1.29558 13.3034 1.41218 14.2956 1.7562C14.5686 1.34976 14.894 0.9809 15.2634 0.659091M17.7572 2.29104C17.3267 2.48102 16.9527 2.77861 16.6712 3.15501C17.9403 4.29036 18.7486 5.84999 18.9437 7.53933C19.4317 7.52699 19.8881 7.38848 20.2799 7.15534C20.0138 5.29684 19.1258 3.58262 17.76 2.29104" fill="#EDBBFF"/>
<path d="M8.0157 20.4427C8.25078 21.463 8.76906 22.3654 9.48943 23.0072C10.2098 23.6517 11.0924 24.0001 11.9997 24.0001C12.9071 24.0001 13.7897 23.6517 14.51 23.0085C15.2304 22.364 15.7473 21.463 15.9838 20.4427" fill="#EDBBFF"/>
<path d="M8.0157 20.4427C8.25078 21.463 8.76906 22.3654 9.48943 23.0072C10.2098 23.6517 11.0924 24.0001 11.9997 24.0001C12.9071 24.0001 13.7897 23.6517 14.51 23.0085C15.2304 22.364 15.7473 21.463 15.9838 20.4427" stroke="#EDBBFF" stroke-width="1.2" stroke-linecap="round"/>
<path d="M18.8735 7.54346C20.392 7.54346 21.623 6.31548 21.623 4.80069C21.623 3.2859 20.392 2.05792 18.8735 2.05792C17.355 2.05792 16.124 3.2859 16.124 4.80069C16.124 6.31548 17.355 7.54346 18.8735 7.54346Z" fill="#9124B6"/>
</svg>
