<svg width="20" height="24" viewBox="0 0 20 24" fill="none" xmlns="http://www.w3.org/2000/svg">
<path d="M13.5539 11.996C13.5539 12.1438 13.5261 12.29 13.4723 12.4265C13.4184 12.563 13.3395 12.6871 13.24 12.7915C13.1405 12.896 13.0224 12.9789 12.8924 13.0354C12.7624 13.092 12.6231 13.1211 12.4823 13.1211C12.3416 13.1211 12.2023 13.092 12.0723 13.0354C11.9423 12.9789 11.8242 12.896 11.7247 12.7915C11.6252 12.6871 11.5463 12.563 11.4924 12.4265C11.4386 12.29 11.4108 12.1438 11.4108 11.996C11.4108 11.6976 11.5237 11.4115 11.7247 11.2005C11.9256 10.9895 12.1982 10.871 12.4823 10.871C12.7665 10.871 13.0391 10.9895 13.24 11.2005C13.441 11.4115 13.5539 11.6976 13.5539 11.996ZM9.43642 0.0164807C9.33235 -0.00698876 9.22461 -0.00574328 9.12106 0.0201258C9.01751 0.0459949 8.92077 0.0958338 8.83793 0.165999C8.75508 0.236164 8.68821 0.324882 8.64221 0.425666C8.59622 0.526451 8.57225 0.636755 8.57207 0.748513V23.2495C8.57204 23.3614 8.59585 23.4719 8.64175 23.5728C8.68766 23.6738 8.7545 23.7627 8.83737 23.833C8.92024 23.9034 9.01706 23.9533 9.12071 23.9793C9.22436 24.0053 9.33223 24.0065 9.43642 23.983L19.4371 21.7314C19.5969 21.695 19.7399 21.6022 19.8424 21.4684C19.9448 21.3347 20.0005 21.1681 20 20.9964V2.99561C19.9998 2.82427 19.9436 2.65819 19.8409 2.525C19.7383 2.39182 19.5953 2.29956 19.4357 2.26358L9.43642 0.0164807ZM10.0007 22.321V1.67555L18.5728 3.60314V20.3919L10.0007 22.321ZM7.14625 22.4935V20.9934H1.4287V3.00011H7.14625V1.50005H0.714367C0.524913 1.50005 0.343219 1.57907 0.209255 1.71973C0.0752909 1.86038 3.05176e-05 2.05116 3.05176e-05 2.25008V21.7434C3.05176e-05 21.9424 0.0752909 22.1331 0.209255 22.2738C0.343219 22.4144 0.524913 22.4935 0.714367 22.4935H7.14625Z" fill="#EDBBFF"/>
</svg>
