<svg width="26" height="26" viewBox="0 0 26 26" fill="none" xmlns="http://www.w3.org/2000/svg">
<path d="M16.0601 1.69877C16.0081 1.49916 15.8883 1.32198 15.7196 1.19537C15.551 1.06877 15.3431 1.00001 15.1292 1H10.868C10.654 1.00001 10.4462 1.06877 10.2775 1.19537C10.1089 1.32198 9.98902 1.49916 9.93703 1.69877L9.30361 4.13938C9.27234 4.25943 9.21629 4.3722 9.1388 4.47099C9.06131 4.56978 8.96396 4.65258 8.85253 4.71446L7.61351 5.404C7.50186 5.46597 7.37837 5.50568 7.25042 5.52075C7.12246 5.53581 6.99266 5.52593 6.86876 5.49169L4.35425 4.79938C4.14829 4.7426 3.92849 4.75373 3.72986 4.83102C3.53124 4.9083 3.36522 5.04729 3.25824 5.22585L1.12859 8.77415C1.02156 8.95245 0.979571 9.16005 1.00931 9.36393C1.03904 9.56782 1.1388 9.75629 1.2927 9.89938L3.17378 11.6486C3.26637 11.7347 3.34 11.8378 3.39029 11.9518C3.44058 12.0659 3.4665 12.1885 3.4665 12.3123V13.6877C3.46663 13.8117 3.44077 13.9345 3.39048 14.0487C3.34019 14.1628 3.26649 14.2661 3.17378 14.3523L1.2927 16.1006C1.13872 16.2439 1.03901 16.4326 1.00945 16.6367C0.979878 16.8407 1.02216 17.0485 1.12955 17.2268L3.25824 20.7742C3.36532 20.9524 3.53124 21.091 3.72965 21.1681C3.92806 21.2452 4.14757 21.2563 4.35329 21.1997L6.8582 20.5111C6.98523 20.4761 7.11839 20.4668 7.24935 20.4836C7.38031 20.5004 7.50625 20.5431 7.61927 20.6089L8.5435 21.148C8.73821 21.2618 8.8845 21.4385 8.95618 21.6465L9.90056 24.3695C9.9644 24.5532 10.0867 24.713 10.2502 24.8261C10.4136 24.9393 10.61 25.0001 10.8113 25H15.1858C15.3873 25 15.5837 24.9391 15.7472 24.8258C15.9107 24.7124 16.0329 24.5525 16.0966 24.3686L17.0391 21.6483C17.1116 21.4389 17.2597 21.2614 17.4566 21.148L18.399 20.6062C18.5119 20.5412 18.6374 20.4992 18.7678 20.4829C18.8983 20.4665 19.0308 20.4761 19.1572 20.5111L21.6429 21.1988C21.8488 21.2556 22.0685 21.2446 22.2671 21.1675C22.4657 21.0904 22.6318 20.9516 22.7389 20.7732L24.8715 17.2212C24.9779 17.0439 25.02 16.8376 24.9912 16.6347C24.9623 16.4318 24.8642 16.244 24.7121 16.1006L22.857 14.3505C22.7659 14.2646 22.6936 14.1622 22.6442 14.0492C22.5947 13.9362 22.5692 13.8149 22.5691 13.6923V12.3077C22.5692 12.1851 22.5947 12.0638 22.6442 11.9508C22.6936 11.8378 22.7659 11.7354 22.857 11.6495L24.7121 9.89938C24.8642 9.75604 24.9623 9.56816 24.9912 9.36529C25.02 9.16243 24.9779 8.9561 24.8715 8.77877L22.7389 5.22677C22.6317 5.04855 22.4655 4.90995 22.2669 4.833C22.0683 4.75606 21.8487 4.7452 21.6429 4.80215L19.1476 5.49169C19.0241 5.52595 18.8947 5.536 18.7671 5.52126C18.6395 5.50651 18.5163 5.46726 18.4048 5.40585L17.1475 4.71354C17.0352 4.65183 16.937 4.56891 16.8588 4.46977C16.7806 4.37063 16.7241 4.2573 16.6926 4.13662L16.0601 1.69877Z" stroke="#EDBBFF" stroke-width="1.2" stroke-linejoin="round"/>
<path d="M17.7972 13.0002C17.7972 14.2242 17.2916 15.3982 16.3917 16.2637C15.4918 17.1293 14.2712 17.6155 12.9985 17.6155C11.7259 17.6155 10.5053 17.1293 9.60537 16.2637C8.70544 15.3982 8.19987 14.2242 8.19987 13.0002C8.19987 11.7761 8.70544 10.6021 9.60537 9.73658C10.5053 8.87103 11.7259 8.38477 12.9985 8.38477C14.2712 8.38477 15.4918 8.87103 16.3917 9.73658C17.2916 10.6021 17.7972 11.7761 17.7972 13.0002Z" stroke="#EDBBFF" stroke-width="0.8" stroke-linejoin="round"/>
</svg>
